<svg width="32" height="32" viewBox="0 0 32 32" fill="none" xmlns="http://www.w3.org/2000/svg">
  <style>
    .logo-outline { fill: black; }
    @media (prefers-color-scheme: dark) {
      .logo-outline { fill: white; }
    }
  </style>
  <path class="logo-outline" d="M23.5626 25.9975H8.4399C7.56613 25.9975 6.90076 25.6242 6.85054 25.1097L6.00188 16.0555C5.99937 16.0177 5.99937 15.9773 6.00188 15.9395L6.85054 6.89029C6.89825 6.37327 7.56613 6 8.4399 6H23.5626C24.4364 6 25.1018 6.37579 25.152 6.89029L25.9981 15.942C26.0006 15.9798 26.0006 16.0202 25.9981 16.058L25.152 25.1122C25.1043 25.6267 24.4364 26 23.5626 26V25.9975ZM8.4399 6.5599C7.79713 6.5599 7.4205 6.81211 7.40795 6.94073L6.56431 15.9924L7.40795 25.0542C7.4205 25.1854 7.79461 25.4351 8.4399 25.4351H23.5626C24.2054 25.4351 24.582 25.1854 24.5921 25.0542L25.4382 16.0025L24.5895 6.94073C24.577 6.81211 24.2029 6.5599 23.5601 6.5599H8.4399Z"/>
  <path d="M15.0633 16.6253C15.0583 16.5673 15.0307 16.5143 14.988 16.4765C14.9453 16.4386 14.8901 16.4185 14.8324 16.4185H11.4904C11.4327 16.4185 11.3775 16.4386 11.3348 16.4765C11.2921 16.5143 11.2645 16.5673 11.2594 16.6253L10.9355 19.6265H15.3898L15.0659 16.6253H15.0633Z" fill="#69EA6C"/>
  <path d="M20.6532 16.6253C20.6482 16.5673 20.6206 16.5143 20.5779 16.4765C20.5352 16.4386 20.4799 16.4185 20.4222 16.4185H17.0803C17.0225 16.4185 16.9673 16.4386 16.9246 16.4765C16.8819 16.5143 16.8543 16.5673 16.8493 16.6253L16.5254 19.6265H20.9796L20.6557 16.6253H20.6532Z" fill="#69EA6C"/>
  <path d="M17.8583 12.489C17.8532 12.431 17.8256 12.3781 17.7829 12.3402C17.7403 12.3024 17.685 12.2822 17.6273 12.2822H14.2854C14.2276 12.2822 14.1724 12.3024 14.1297 12.3402C14.087 12.3781 14.0594 12.431 14.0544 12.489L13.7305 15.4928H18.1822L17.8583 12.489Z" fill="#69EA6C"/>
</svg>
