<svg xmlns="http://www.w3.org/2000/svg" viewBox="0 0 100 100" role="img" aria-label="CheckSig Token (CST) logo">
  <title>CheckSig Token (CST)</title>
  <desc>CheckSig pictogram centered in a transparent square canvas, sized to fit within an inscribed circle. Intended for use as token icon on wallets, block explorers, and asset lists.</desc>
  <g transform="translate(50 50) scale(0.78) translate(-40.177 -40)">
    <path fill="#211F1E" d="M70.5646 80H9.79013C6.28275 80 3.60182 78.5082 3.40696 76.4479L0.00708577 40.2308C-0.00626817 40.0772 -0.00626817 39.9228 0.00708577 39.7692L3.40696 3.55883C3.60182 1.49845 6.28275 0 9.79013 0H70.5646C74.072 0 76.7529 1.49845 76.9478 3.55883L80.3477 39.7692C80.361 39.9228 80.361 40.0772 80.3477 40.2308L76.9478 76.4479C76.7529 78.5082 74.072 80 70.5646 80ZM9.79013 2.24099C7.20327 2.24099 5.69818 3.25111 5.64443 3.7662L2.25127 39.9766L5.64443 76.2338C5.69818 76.7556 7.20327 77.759 9.79013 77.759H70.5646C73.1515 77.759 74.6565 76.7556 74.7036 76.2338L78.1035 40.0234L74.6901 3.7662C74.6431 3.25111 73.138 2.24099 70.5512 2.24099H9.79013Z"/>
    <path fill="#69EA6C" d="M36.4047 42.5037C36.3798 42.2753 36.2714 42.0642 36.1003 41.9113C35.9292 41.7583 35.7076 41.6744 35.4783 41.6758H22.046C21.8168 41.6744 21.5952 41.7583 21.4241 41.9113C21.2529 42.0642 21.1445 42.2753 21.1196 42.5037L19.8135 54.5137H37.7108L36.4047 42.5037Z"/>
    <path fill="#69EA6C" d="M58.8695 42.5037C58.8447 42.2753 58.7362 42.0642 58.5651 41.9113C58.394 41.7583 58.1724 41.6744 57.9431 41.6758H44.5109C44.2816 41.6744 44.06 41.7583 43.8889 41.9113C43.7178 42.0642 43.6093 42.2753 43.5845 42.5037L42.2783 54.5137H60.1757L58.8695 42.5037Z"/>
    <path fill="#69EA6C" d="M47.6376 25.9607C47.6128 25.7323 47.5043 25.5212 47.3332 25.3683C47.1621 25.2154 46.9405 25.1315 46.7112 25.1328H33.2789C33.0497 25.1315 32.8281 25.2154 32.657 25.3683C32.4859 25.5212 32.3774 25.7323 32.3526 25.9607L31.0557 37.9739H48.9438L47.6376 25.9607Z"/>
  </g>
</svg>
