<svg width="379" height="81" viewBox="0 0 379 81" fill="none" xmlns="http://www.w3.org/2000/svg">
<path d="M111.215 40.2122C111.215 5.92658 117.661 0 130.374 0C132.849 0 139.906 0.4304 142.381 0.8608V3.98551C140.765 3.87791 134.25 3.77031 132.419 3.77031C123.824 3.77031 120.687 8.62519 120.687 40.2122C120.687 71.7993 123.807 76.65 132.419 76.65C134.25 76.65 140.765 76.5424 142.381 76.4348V79.5638C139.906 79.9942 132.849 80.4246 130.374 80.4246C117.67 80.4246 111.215 74.6012 111.215 40.2122Z" fill="#FCF9F8"/>
<path d="M174.493 30.0455H158.102V79.9935H148.952V0.429688H158.102V26.598H174.484V0.429688H183.638V79.9935H174.484L174.493 30.0455Z" fill="#FCF9F8"/>
<path d="M190.535 0.429688H217.726V3.87289H199.676V26.5937H215.779V30.0369H199.676V76.5201H218.04V79.9633H190.535V0.429688Z" fill="#FCF9F8"/>
<path d="M221.913 40.2122C221.913 5.92658 228.36 0 241.076 0C243.552 0 250.376 0.4304 252.852 0.8608V3.98551C251.24 3.87791 244.948 3.77031 243.122 3.77031C234.527 3.77031 231.385 8.62519 231.385 40.2122C231.385 71.7993 234.509 76.65 243.122 76.65C244.948 76.65 251.24 76.5424 252.852 76.4348V79.5638C250.376 79.9942 243.552 80.4246 241.076 80.4246C228.372 80.4246 221.913 74.6012 221.913 40.2122Z" fill="#FCF9F8"/>
<path d="M270.76 42.9058L267.64 50.128V79.9935H258.705V0.429688H267.64V42.045L285.939 0.429688H290.138L276.789 30.5061L290.89 80.0021H281.311L270.76 42.9058Z" fill="#FCF9F8"/>
<path d="M296.116 79.5638V76.4348C298.377 76.5424 301.067 76.65 303.422 76.65C310.204 76.65 312.142 72.9873 312.142 67.4868C312.011 64.0035 311.395 60.5556 310.311 57.2432C309.129 53.8 307.191 48.4071 304.295 41.1806C301.604 34.2942 299.778 29.2156 298.807 26.4137C297.087 21.0208 296.439 18.0037 296.439 14.9823C296.439 6.89934 300.1 0 311.725 0C314.416 0 316.998 0.4304 319.693 0.8608V3.98551C317.862 3.87791 315.709 3.77031 313.771 3.77031C307.419 3.77031 305.266 6.68413 305.266 11.4271C305.266 14.0095 305.696 16.592 307.312 21.8859C308.171 24.365 310.32 30.1839 313.234 37.1908C316.031 44.0772 318.077 50.2363 319.152 53.2577C320.441 56.9204 321.412 61.4353 321.412 65.1152C321.412 73.5253 317.432 80.4246 305.803 80.4246C302.361 80.4246 299.451 79.9942 296.116 79.5638Z" fill="#69EA6C"/>
<path d="M327.253 0.429688H336.278V79.9935H327.253V0.429688Z" fill="#69EA6C"/>
<path d="M343.996 40.2123C343.996 8.08288 349.153 0 365.42 0C369.531 0.0689838 373.635 0.356321 377.715 0.8608V3.98551C375.67 3.87791 369.833 3.77031 367.465 3.77031C353.683 3.77031 353.468 11.6423 353.468 40.2123C353.468 68.4594 353.898 76.5424 364.212 76.5424H369.975V29.9214H363.301V26.3663H379V79.2195C375.773 80.0803 367.027 80.4074 362.94 80.4074C349.918 80.4246 343.996 74.6012 343.996 40.2123Z" fill="#69EA6C"/>
<g clip-path="url(#clip0_3386_29942)">
<path d="M69.9373 79.6385H9.70308C6.22687 79.6385 3.56977 78.16 3.37665 76.118L0.00699675 40.2228C-0.0062385 40.0706 -0.0062385 39.9175 0.00699675 39.7653L3.37665 3.8768C3.56977 1.83474 6.22687 0.349609 9.70308 0.349609H69.9373C73.4136 0.349609 76.0706 1.83474 76.2638 3.8768L79.6334 39.7653C79.6467 39.9175 79.6467 40.0706 79.6334 40.2228L76.2638 76.118C76.0706 78.16 73.4136 79.6385 69.9373 79.6385ZM9.70308 2.57068C7.13921 2.57068 5.64751 3.57182 5.59423 4.08233L2.23123 39.9709L5.59423 75.9058C5.64751 76.423 7.13921 77.4175 9.70308 77.4175H69.9373C72.5012 77.4175 73.9929 76.423 74.0395 75.9058L77.4092 40.0173L74.0262 4.08233C73.9796 3.57182 72.4879 2.57068 69.924 2.57068H9.70308Z" fill="#FCF9F8"/>
</g>
<g clip-path="url(#clip1_3386_29942)">
<path d="M36.0824 42.4768C36.0578 42.2504 35.9503 42.0412 35.7807 41.8896C35.6111 41.7381 35.3915 41.6549 35.1643 41.6563H21.8514C21.6242 41.6549 21.4045 41.7381 21.2349 41.8896C21.0653 42.0412 20.9578 42.2504 20.9332 42.4768L19.6387 54.3801H37.3769L36.0824 42.4768Z" fill="#69EA6C"/>
<path d="M58.348 42.4768C58.3234 42.2504 58.2159 42.0412 58.0463 41.8896C57.8767 41.7381 57.6571 41.6549 57.4299 41.6563H44.117C43.8898 41.6549 43.6701 41.7381 43.5006 41.8896C43.331 42.0412 43.2235 42.2504 43.1989 42.4768L41.9043 54.3801H59.6426L58.348 42.4768Z" fill="#69EA6C"/>
<path d="M47.2158 26.0803C47.1912 25.8539 47.0837 25.6447 46.9141 25.4932C46.7445 25.3416 46.5249 25.2584 46.2976 25.2598H32.9848C32.7575 25.2584 32.5379 25.3416 32.3683 25.4932C32.1987 25.6447 32.0912 25.8539 32.0666 26.0803L30.7812 37.9867H48.5103L47.2158 26.0803Z" fill="#69EA6C"/>
</g>
<defs>
<clipPath id="clip0_3386_29942">
<rect width="79.6398" height="79.2889" fill="white" transform="translate(0 0.349609)"/>
</clipPath>
<clipPath id="clip1_3386_29942">
<rect width="39.9953" height="29.1194" fill="white" transform="translate(19.6475 25.2598)"/>
</clipPath>
</defs>
</svg>
